<svg xmlns="http://www.w3.org/2000/svg" xmlns:xlink="http://www.w3.org/1999/xlink" width="1873.411" height="1082.565" viewBox="0 0 1873.411 1082.565">
  <defs>
    <style>
      .cls-1 {
        fill-rule: evenodd;
        fill: url(#linear-gradient);
      }
    </style>
    <linearGradient id="linear-gradient" x1="63.469" y1="929.658" x2="1936.88" y2="929.658" gradientUnits="userSpaceOnUse">
      <stop offset="0" stop-color="#ffa406"/>
      <stop offset="0.907" stop-color="#ee150a"/>
      <stop offset="1" stop-color="#ee150a"/>
    </linearGradient>
  </defs>
  <path class="cls-1" d="M1484.38,750.846c-22.32,5.924-219.34,49.548-372.82-49.449-47.8-30.828-92.43-77.838-128.567-140.354-29.079-50.307-49.914-103.327-50.5-122.676-0.367-12.129.449-29.9-11.627-40.88-26.2-23.835-92.937,3.1-134.8,34.725-59.543,44.977-91.832,117.529-76.435,132.128,14.361,13.617,62.448-31.456,99.608-13.4,26.754,13,27.328,57.3,44.726,83.753,17.6,26.747,36.84,40.366,42.794,74.021,2.633,14.874,1.5,26.218-2.01,27.233-7.417,2.142-19.721-48.523-56.481-66.269-51.031-24.638-129.229,12.737-128.951,38.629,0.276,25.676,79.6,36.808,77.966,62.425-0.443,6.919-5.955,13.265-11.749,15.538-14.1,5.531-31.811-11.985-46.81-23.447-41.527-31.738-96.267-37.642-126.834-37.241-70.107.922-143.829,39.409-142.691,71.673,0.672,19.089,30.092,40.1,87.723,64.392,14.225,5.994,45.94,18.206,62.376,48.773,6.828,12.7,11.256,28.641,5.786,33.085-10.115,8.219-45.028-35.528-89.732-39.1-51.355-4.109-76.028,37.417-128.96,42.52-41.742,4.024-85.284-10.182-115.127-33.324-30.307-23.5-43.217-69.066-62.333-68.228-27.681,1.216-59.457,81.6-35.433,132.217,6.739,14.2,16.2,24.006,21.418,27.286,11.484,7.22,30.795,6.45,33.164,13.69,1.763,5.39-4.7,13.46-11.754,17.48-14.731,8.4-44.925-1.35-89.744-33.27-8.919-6.348-53.131-48.9-62.383-44.879-20.657,8.971-15,114.929,48.449,167.419,24.817,20.53,48.335,28.46,62.417,29.32,16.364,0.99,41.987-10.64,52.723-1.83,16.762,13.74-6.211,63.86,3.68,103.11,8.1,32.16,30.883,64.19,48.678,62.37,30.893-3.17,29.054-106.94,80.325-124.34,9.375-3.18,38.849,1.3,72.2,17.67,31.882,15.64,48.2,35.09,72.172,33.23,29.4-2.3,58.3-30.3,84.064-48.46,4.669-3.29,13.039-8.74,19.538-5.79,6.056,2.74,8.669,12.08,7.768,19.47-1.923,15.76-20.208,25.21-27.4,29.12-23.525,12.79-33.376,27.61-56.713,40.73-45.984,25.87-83.224,34.91-86.026,52.35-4.847,30.18,57.584,74.54,120.88,81.97,29.832,3.5,77.06-2.28,132.847-34.73,32.506-18.91,55.48-40.5,66.459-32.93,6.354,4.38,6.1,16.76,3.85,25.3-9.709,36.82-72.368,39.86-72.367,56.26,0,23.83,131.56,71.07,240.12,19.98,55.618-26.18,93.208-83.77,123.248-108.68,82.94-68.78,155.39-89.03,209.12-90.98,91.09-3.31,178.55,38.57,175.6,56.8-1.56,9.65-29.09,16.39-50.8,15.45-21.15-.91-34.45-9.05-50.76-2.06-9.78,4.2-21.4,14.12-21.53,25.25-0.33,28,72.03,62.13,138.51,54.77a179.384,179.384,0,0,0,89.9-36.76c12.43-9.84,43.14-48.62,52.81-44.64,9.48,3.91.08,31.19,9.68,36.99,27.53,16.62,179.27-147.76,152.7-184.49-7.66-10.59-31.43-4.09-70.29-.15-66.88,6.77-125.71,3.42-165.95-6.2-40.31-9.64-76.9-31.22-122.89-54.74-58.9-30.13-94.14-45.1-91.65-54.67,2.37-9.12,39.54-5.12,103.49-3.67,49.2,1.11,113.78,2.19,119.05,23.6,2.56,10.36-11.55,19.2-7.87,29.17,4.71,12.74,34.54,16.85,60.5,11.8,43.53-8.46,77.11-48.59,82.11-44.56,3.15,2.54-8.87,20.86-7.9,40.83,0.45,9.2,3.35,15.27,5.82,17.53,11.66,10.69,40.54,2.02,60.55-11.54,17.78-12.05,27.57-32.75,52.82-44.64,12-5.65,20.88-5.86,25.39-3.83,18.42,8.27,8.92,44.08,23.32,50.63,22.38,10.18,95.58-53.42,94-128.195-1.78-83.874-94.13-144.167-111.01-132.535-7.86,5.417,5.72,27.52-4,46.683-7.77,15.31-38.64,30.948-93.8,34.814-29.25,2.051-100.53,2.91-107.34-21.634-2.9-10.439,7.88-18.269,3.97-33.064-1.72-6.518-5.79-11.342-7.78-13.635-11.22-12.965-21.65-30.632-35.04-46.768-33.95-40.91-46.1-72.463-75.99-76.039C1497,747.886,1487.44,750.033,1484.38,750.846Zm-123.26,116.46c-10.86,18.866-2.17,49.8,17.43,66.185,11.54,9.644,30.12,13.53,60.5,11.8,42.3-2.4,67.5-10.2,71.2-19.425,7.69-19.2-19.3-48.3-43.69-62.225C1432.71,844.316,1377.24,839.31,1361.12,867.306Z" transform="translate(-63.469 -388.375)"/>
</svg>
